<?xml version="1.0" encoding="utf-8"?>
<!-- Generator: Adobe Illustrator 28.2.0, SVG Export Plug-In . SVG Version: 6.00 Build 0)  -->
<svg version="1.1" xmlns="http://www.w3.org/2000/svg" xmlns:xlink="http://www.w3.org/1999/xlink" x="0px" y="0px"
	 viewBox="0 0 69.1 67.7" style="enable-background:new 0 0 69.1 67.7;" xml:space="preserve">
<style type="text/css">
	.st0{display:none;}
	.st1{display:inline;}
	.st2{fill:none;}
	.st3{fill:#61BBC9;}
	.st4{fill:#231F20;}
	.st5{fill:#FFFFFF;}
	.st6{fill:#D9D9D9;}
</style>
<g id="Layer_2" class="st0">
	<g class="st1">
		<path class="st2" d="M232.8,245.3c-0.3-0.2-0.7-0.5-1.1-0.8l-0.4-0.3v0c0,0,0,0,0,0v7H105.3V126.7h126.1v113.8c0,0,0,0,0,0v0
			l0.8,0.6c0.8,0.6,1.7,1.2,2.6,1.7l0,0c0.2,0.1,0.4,0.2,0.6,0.3V122.8h-134v132.2h134v-8.3c-0.2-0.1-0.3-0.2-0.5-0.3
			C234.1,246.1,233.5,245.7,232.8,245.3z"/>
		<path class="st2" d="M244.3,250.5L244.3,250.5c4.9,2.1,10.2,3.8,16.2,4.5c1.2,0.1,2.4,0.1,3.6,0.1c0.1,0,0.3,0,0.4,0
			c-1.4,0-2.7,0-4-0.1C254.5,254.2,249.2,252.6,244.3,250.5z"/>
		<path class="st2" d="M267.2,253.8c0.9-0.1,1.8-0.2,2.7-0.5C269,253.6,268.1,253.7,267.2,253.8z"/>
		<path class="st2" d="M287.3,229.8c0.1,3.6-0.1,7-0.7,10.2c-0.1,0.5-0.2,0.9-0.3,1.4c0,0,0,0,0,0c0,0,0,0,0,0
			c0.1-0.5,0.2-0.9,0.3-1.4C287.2,236.9,287.4,233.4,287.3,229.8C287.3,229.8,287.3,229.8,287.3,229.8z"/>
		<path class="st2" d="M285.9,243.2c-2.6,7.2-8.1,10.7-16.3,11.5c0,0,0,0,0,0c0,0,0,0,0,0C277.8,253.9,283.4,250.4,285.9,243.2
			c0,0,0-0.1,0.1-0.2h0C286,243.1,285.9,243.2,285.9,243.2z"/>
		<path class="st3" d="M136.7,227.7c1.1,0.2,2.1,0.2,3.2,0.3C138.8,228,137.8,227.9,136.7,227.7z"/>
		<path class="st3" d="M142.7,227.8c-0.7,0.1-1.5,0.2-2.3,0.2C141.2,228,142,227.9,142.7,227.8z"/>
		<path class="st3" d="M133.1,227c1.2,0.3,2.4,0.6,3.5,0.7C135.4,227.5,134.3,227.3,133.1,227z"/>
		<path class="st3" d="M123.5,224.6c-2.7-1.3-6.7-3-9-5.2l0,0l0,0l0,0C116.8,221.6,120.8,223.3,123.5,224.6c3.6,1.7,9.4,3.9,15.7,4
			c0,0,0.1,0,0.1,0c0.4,0,0.9-0.1,1.4-0.1c-0.5,0-1.1,0.1-1.5,0.1C133,228.5,127.1,226.3,123.5,224.6z"/>
		<path class="st3" d="M183.2,235c-11.8,0-22.6-4.4-32.3-9.3c-1,0.6-2,1-3,1.4c1-0.4,2-0.8,3-1.4C160.6,230.6,171.3,235,183.2,235
			c11.2,0,20.7-5.5,26.8-14.2l0,0C203.8,229.5,194.4,235,183.2,235z"/>
		<path class="st3" d="M128.3,225.5c-1.2-0.4-2.4-0.9-3.5-1.4C125.9,224.6,127.1,225.1,128.3,225.5z"/>
		<path class="st3" d="M153.4,201.5c0.6,0.5,1.1,1,1.6,1.6C154.5,202.6,153.9,202,153.4,201.5z"/>
		<path class="st3" d="M128.9,225.8c1.2,0.4,2.3,0.8,3.5,1.1C131.3,226.5,130.1,226.2,128.9,225.8z"/>
		<path class="st4" d="M113.9,214l0,0.3c0,0.8,0,1.3,0.8,2.5c2.6,3.2,8.4,5.7,10.4,6.5c5.6,2.4,11.1,3.8,15.1,3.8
			c0.8,0,1.6-0.1,2.3-0.2c2.2-0.4,4.1-0.8,5.8-1.5c-2-1-3.9-2.1-5.8-3.1c-9.4-5.1-17.6-9.5-25-9.5C115,212.9,113.9,213.2,113.9,214z
			"/>
		<path class="st3" d="M113,214c0-1.9,2.7-2,4.6-2c2.7,0,5.4,0.6,8.3,1.5c-2.9-0.9-5.6-1.5-8.3-1.5C115.7,212,113,212.1,113,214
			c0,1-0.1,1.7,1,3.4c0.1,0.1,0.2,0.3,0.3,0.4c-0.1-0.1-0.2-0.2-0.3-0.4C112.9,215.7,113,215,113,214z"/>
		<path class="st3" d="M217.1,168.6c0.1,0.9,0.3,1.7,0.3,2.3C217.3,170.3,217.2,169.5,217.1,168.6
			C217.1,168.6,217.1,168.6,217.1,168.6z"/>
		<path class="st3" d="M143.6,228.2c-0.6,0.1-1.2,0.2-1.7,0.3C142.4,228.4,143,228.3,143.6,228.2z"/>
		<path class="st3" d="M202.5,149.1c-0.1,0-0.2,0-0.2,0c0.9,0,1.8,0.1,2.6,0.3C204.1,149.2,203.3,149.1,202.5,149.1z"/>
		<path class="st3" d="M199,149.6c1-0.3,1.9-0.4,2.9-0.4C200.9,149.2,200,149.3,199,149.6z"/>
		<path class="st4" d="M211,223.7c-0.4-0.5-0.7-0.9-1-1.4c-6.6,8.8-16.1,13.6-26.8,13.6c-12.3,0-23.2-4.6-32.3-9.2
			c-3.8,2-8.4,2.8-11.6,2.8c0,0,0,0,0,0c-6.4,0-12.3-2.2-16.1-4.1l-0.9-0.4c-2.7-1.3-5.9-2.8-8.1-4.7c-0.1-0.1-0.2-0.1-0.2-0.2
			c-0.1-0.1-0.2-0.2-0.4-0.4c-1.1-1.1-3.8-3.6-4.4-8c-0.3-2.4,0.4-4.7,2.1-6.7c2.3-2.7,6.2-4.3,10.1-4.3c7.9,0,16.7,5.3,26.9,11.4
			c2.6,1.6,5.3,3.2,8,4.7c0.6-2,1-4,1-4.9c0.3-3.6-1.1-6.9-4.3-9.7c-0.4-0.3-0.4-0.9-0.1-1.2c0.2-0.2,0.4-0.3,0.7-0.3
			c0.2,0,0.4,0.1,0.5,0.2c3,2.3,4.5,4,5.3,8c0.4,2.1-0.1,5.8-1.2,9.1c8.9,4.9,19.4,9.9,30.8,9.9c7.3,0,13.9-3.1,18.7-8.9
			c-6.5-9.3-11.3-17.7-14.6-25.9c-0.1,0-0.2,0-0.2,0c-27.7,0-60.6-23-60.6-42.5c0-11,11.3-17.5,22.2-17.5c9.6,0,26.1,7.9,39.3,18.8
			c1.4-1.5,3.1-2.5,5.2-3.1c1.3-0.3,2.5-0.5,3.7-0.5c3,0,5.8,1,8.6,3.2c4.8,3.6,7.4,10.8,7.2,20.2c0,3.6-0.8,7-2.2,9.9
			c1.7,4.6,2.5,9.1,2.5,13.6c0,9.3-2.4,17.9-7,25c6.4,8.9,12.7,15.4,19.8,20.5V126.7H105.3v124.5h126.1v-7
			C221.4,237.1,213.4,227,211,223.7z M149.2,243.2c0-0.1,0-0.2,0.1-0.2C149.2,243.1,149.2,243.2,149.2,243.2z M149.4,242.1
			c0,0,0,0.1,0,0.1c0,0-0.1,0.3-0.1,0.4c0,0-0.1,0.2-0.1,0.3l-0.9-0.2c0-0.1,0-0.1,0-0.2c0-0.1,0.1-0.3,0.1-0.4c0-0.1,0-0.2,0.1-0.3
			c0,0,0.1-0.2,0.1-0.3l0,0h0c0,0,0,0,0,0l0.8,0.5C149.4,242,149.4,242.1,149.4,242.1z"/>
		<path class="st3" d="M231.3,243.1L231.3,243.1c-3.6-2.6-7-5.7-10-8.7C224.3,237.4,227.7,240.4,231.3,243.1z"/>
		<path class="st3" d="M166.5,186.3c8.3,3.6,17.4,5.8,26.2,5.8c0.3,0,0.6,0,0.8,0v0c-0.3,0-0.6,0-0.8,0
			C183.9,192.1,174.8,189.9,166.5,186.3z"/>
		<path class="st3" d="M158.3,209c-0.6-2.8-1.5-4.4-3.1-5.9C156.8,204.6,157.7,206.1,158.3,209c0.4,1.9-0.1,5.8-1.4,9.3l0,0
			C158.2,214.8,158.7,210.9,158.3,209z"/>
		<path class="st3" d="M217.4,171.4C217.4,171.4,217.4,171.5,217.4,171.4c0.2-11.1-3.4-16.2-5.6-18.3
			C213.9,155.2,217.6,160.3,217.4,171.4z"/>
		<path class="st3" d="M217.6,195.1c0-4.7-0.9-9.2-2.6-13.7c1.4-2.7,2.3-6,2.3-9.9c0,0,0,0,0,0c0,0,0,0,0,0c0-0.1,0-0.3,0-0.4
			c0,0.1,0,0.3,0,0.4c0,3.8-0.9,7.2-2.3,9.9C216.7,185.8,217.6,190.3,217.6,195.1c0,9.6-2.6,18.2-7.2,25c4,5.6,7.9,10.1,11.8,14
			c-3.9-3.8-7.8-8.4-11.8-14C215,213.3,217.6,204.6,217.6,195.1z"/>
		<path class="st4" d="M189,180.5c-1.6-7.2-1.5-18,1.9-24.7c0.1-0.2,0.2-0.5,0.4-0.7c-12-9.9-25.5-15.7-36.2-15.7
			c-7.2,0-15,4.9-15,12.9c0,17.3,26.7,36.3,51.4,36.8C190.4,186,189.6,183.2,189,180.5z"/>
		<path class="st3" d="M192,159.9c0.5-1.2,0.9-2.6,1.6-3.9c1.7,1.4,3.2,2.9,4.8,4.5l0,0c-1.5-1.6-3.1-3.1-4.8-4.5
			C192.9,157.3,192.5,158.6,192,159.9c-1.7,4.6-2.4,10.4-1.9,16.1c0.4,4,1.6,8.7,3.6,13.9h0c-2-5.2-3.2-9.9-3.6-13.9
			C189.6,170.3,190.3,164.4,192,159.9z"/>
		<path class="st3" d="M206.1,213.7c-5.1-8-8.9-15.2-11.5-21.7c6.9-0.4,14.8-2.8,19.2-8.8c0,0,0,0,0,0c-4.5,6-12.3,8.4-19.2,8.8
			C197.2,198.5,201,205.7,206.1,213.7c1,1.6,2,3,3,4.5C208.1,216.7,207.1,215.3,206.1,213.7z"/>
		<path class="st4" d="M212.3,181.8c-2.6-7-6.9-13.2-14.5-20.7c-1.2-1.2-2.5-2.5-3.9-3.7c-0.3,0.8-0.6,1.5-0.9,2.3l-0.2,0.5
			c-1.7,4.6-2.4,10.3-1.8,15.7c0.4,3.8,1.5,8.2,3.3,13.1C202.3,188.6,209,185.9,212.3,181.8z"/>
		<path class="st4" d="M195.9,192.8c2.7,6.4,6.4,13.2,11,20.4c0.8,1.2,1.5,2.3,2.3,3.4c3.7-5.5,5.7-12.5,5.7-19.9
			c0-4.2-0.5-8.1-1.4-11.6C208.2,190.9,200.2,192.4,195.9,192.8z"/>
		<path class="st3" d="M155,138.4c4.9,0,10.4,1.2,15.9,3.4C165.4,139.7,159.9,138.4,155,138.4c-8.2,0-15.9,5.6-15.9,13.8
			c0,4.5,1.8,9.2,4.8,13.6c-3-4.4-4.8-9-4.8-13.6C139.1,144.1,146.8,138.4,155,138.4z"/>
		<path class="st3" d="M203.4,150.6C203.4,150.6,203.4,150.6,203.4,150.6c2.6,0.2,4.9,1.7,6.8,3.6
			C208.3,152.3,206,150.8,203.4,150.6C203.4,150.6,203.4,150.6,203.4,150.6z"/>
		<path class="st3" d="M196.7,152.4C196.7,152.4,196.7,152.4,196.7,152.4C196.7,152.4,196.7,152.4,196.7,152.4
			c-0.7,0.5-1.3,1.1-1.8,1.7l0,0C195.4,153.5,196,153,196.7,152.4z"/>
		<path class="st4" d="M214.4,177.4c0.1-0.4,0.1-0.9,0.2-1.4c0.1-0.5,0.1-1,0.2-1.5c0.3-1.8,0.4-4.1,0.2-6.8l0-0.3
			c-0.3-2.2-0.5-3.7-0.6-4.2c-1-4.1-3-6.3-3.1-6.4c-1.7-2.3-4.5-5-7.9-5.3c-0.4,0-0.7,0-1.1,0c-1.8,0-3.2,0.3-5.1,1.7
			c-0.4,0.3-0.7,0.6-1,0.9C204.4,161.4,210.7,169.4,214.4,177.4z"/>
		<path class="st3" d="M214.6,179.9L214.6,179.9c-0.5-1.1-1-2.3-1.6-3.4C213.6,177.7,214.1,178.8,214.6,179.9z"/>
		<path class="st5" d="M149.4,242c0,0,0,0.1,0,0.1C149.4,242.1,149.4,242,149.4,242l-0.8-0.5L149.4,242z"/>
		<path class="st5" d="M232.7,241.5c0.1,0,0.1,0.1,0.1,0.1c0.2,0.1,0.3,0.2,0.5,0.3c0.3,0.2,0.5,0.3,0.9,0.6l0.5,0.3
			c-0.9-0.6-1.7-1.1-2.6-1.7L232.7,241.5z"/>
		<path class="st5" d="M149.2,243c0,0,0,0.1-0.1,0.2C149.2,243.2,149.2,243.1,149.2,243z"/>
		<path class="st5" d="M211.5,220.1c4.6-7.1,7-15.7,7-25c0-4.6-0.8-9-2.5-13.6c1.5-2.9,2.2-6.3,2.2-9.9c0.2-9.4-2.4-16.5-7.2-20.2
			c-2.8-2.1-5.7-3.2-8.6-3.2c-1.2,0-2.5,0.2-3.7,0.5c-2.2,0.6-3.8,1.6-5.2,3.1c-13.2-10.9-29.6-18.8-39.3-18.8
			c-10.9,0-22.2,6.6-22.2,17.5c0,19.5,32.8,42.5,60.6,42.5c0.1,0,0.2,0,0.2,0c3.3,8.1,8,16.6,14.6,25.9c-4.7,5.7-11.3,8.9-18.7,8.9
			c-11.4,0-21.9-4.9-30.8-9.9c1.1-3.3,1.6-7,1.2-9.1c-0.8-3.9-2.3-5.7-5.3-8c-0.2-0.1-0.4-0.2-0.5-0.2c-0.3,0-0.5,0.1-0.7,0.3
			c-0.3,0.4-0.3,0.9,0.1,1.2c3.2,2.8,4.6,6,4.3,9.7c-0.1,0.9-0.4,2.9-1,4.9c-2.7-1.6-5.4-3.2-8-4.7c-10.2-6.1-19-11.4-26.9-11.4
			c-3.9,0-7.8,1.7-10.1,4.3c-1.7,2-2.4,4.3-2.1,6.7c0.6,4.4,3.3,7,4.4,8c0.2,0.2,0.3,0.3,0.4,0.4c0.1,0.1,0.2,0.2,0.2,0.2
			c2.2,1.9,5.5,3.5,8.1,4.7l0.9,0.4c3.8,1.8,9.7,4,16.1,4.1c0,0,0,0,0,0c3.2,0,7.8-0.7,11.6-2.8c9.1,4.6,20,9.2,32.3,9.2
			c10.7,0,20.2-4.8,26.8-13.6c0.3,0.5,0.7,0.9,1,1.4c2.4,3.3,10.4,13.4,20.3,20.5c0,0,0,0,0,0l0-0.4c0-0.2,0-0.5,0-0.7
			c-3.6-2.6-7-5.7-10-8.7c3,3,6.3,6,10,8.7c0-0.1,0-0.1,0-0.2l0-0.6l0-0.6l0-1.1c0,0,0,0,0,0C224.2,235.4,218,229,211.5,220.1z
			 M202.5,149.1c0.8,0,1.6,0.1,2.4,0.3c-0.9-0.2-1.7-0.3-2.6-0.3C202.3,149.1,202.4,149.1,202.5,149.1z M210.2,154.2
			c-1.9-1.9-4.2-3.4-6.8-3.6c0,0,0,0,0,0c0,0,0,0,0,0C206,150.8,208.3,152.3,210.2,154.2z M201.9,149.1c-0.9,0-1.9,0.2-2.9,0.4
			C200,149.3,200.9,149.2,201.9,149.1z M202.3,151.5c0.3,0,0.7,0,1.1,0c3.4,0.2,6.1,3,7.9,5.3c0.1,0.1,2.1,2.3,3.1,6.4
			c0.2,0.6,0.4,2,0.6,4.2l0,0.3c0.2,2.7,0.1,5-0.2,6.8c-0.1,0.5-0.2,1-0.2,1.5c-0.1,0.5-0.1,0.9-0.2,1.4c-3.7-8-10-16-18.2-23.3
			c0.3-0.3,0.7-0.6,1-0.9C199.2,151.8,200.6,151.5,202.3,151.5z M214.8,196.7c0,7.4-2,14.4-5.7,19.9c-0.7-1.1-1.5-2.2-2.3-3.4
			c-4.6-7.2-8.3-14-11-20.4c4.3-0.4,12.3-1.9,17.6-7.7C214.4,188.6,214.8,192.5,214.8,196.7z M214.6,179.9c-0.5-1.1-1-2.3-1.6-3.4
			C213.6,177.7,214.1,178.8,214.6,179.9L214.6,179.9z M196.7,152.4C196.7,152.4,196.7,152.4,196.7,152.4
			C196.7,152.4,196.7,152.4,196.7,152.4c-0.7,0.5-1.3,1.1-1.8,1.7l0,0C195.4,153.5,196,153,196.7,152.4z M139.1,152.3
			c0-8.2,7.7-13.8,15.9-13.8c4.9,0,10.4,1.2,15.9,3.4c-5.5-2.2-10.9-3.4-15.9-3.4C146.8,138.4,139.1,144.1,139.1,152.3
			c0,4.5,1.8,9.2,4.8,13.6C140.9,161.4,139.1,156.8,139.1,152.3z M140,152.3c0-8,7.8-12.9,15-12.9c10.7,0,24.2,5.9,36.2,15.7
			c-0.1,0.2-0.2,0.5-0.4,0.7c-3.3,6.7-3.5,17.6-1.9,24.7c0.6,2.7,1.4,5.5,2.5,8.5C166.7,188.5,140,169.6,140,152.3z M193.5,192.1
			c-0.3,0-0.6,0-0.8,0c-8.8,0-17.8-2.2-26.2-5.8c8.3,3.6,17.4,5.8,26.2,5.8C192.9,192.1,193.2,192.1,193.5,192.1L193.5,192.1z
			 M193.7,189.9c-2-5.2-3.2-9.9-3.6-13.9c-0.6-5.7,0.2-11.5,1.9-16.1c0.5-1.2,0.9-2.6,1.6-3.9c1.7,1.4,3.2,2.9,4.8,4.5l0,0
			c-1.5-1.6-3.1-3.1-4.8-4.5c-0.7,1.3-1.2,2.7-1.6,3.9c-1.7,4.6-2.4,10.4-1.9,16.1C190.6,179.9,191.8,184.6,193.7,189.9L193.7,189.9
			z M191,175.9c-0.5-5.4,0.1-11.1,1.8-15.7l0.2-0.5c0.3-0.7,0.5-1.5,0.9-2.3c1.3,1.2,2.6,2.4,3.9,3.7c7.5,7.5,11.9,13.8,14.5,20.7
			c-3.3,4.1-9.9,6.7-17.9,7.1C192.5,184,191.4,179.6,191,175.9z M206.1,213.7c-5.1-8-8.9-15.2-11.5-21.7c6.9-0.4,14.8-2.8,19.2-8.8
			c0,0,0,0,0,0c-4.5,6-12.3,8.4-19.2,8.8C197.2,198.5,201,205.7,206.1,213.7c1,1.6,2,3,3,4.5C208.1,216.7,207.1,215.3,206.1,213.7z
			 M153.4,201.5c0.6,0.5,1.1,1,1.6,1.6C154.5,202.6,153.9,202,153.4,201.5z M158.3,209c-0.6-2.8-1.5-4.4-3.1-5.9
			C156.8,204.6,157.7,206.1,158.3,209c0.4,1.9-0.1,5.8-1.4,9.3l0,0C158.2,214.8,158.7,210.9,158.3,209z M148.3,225.4
			c-1.7,0.8-3.6,1.2-5.8,1.5c-0.7,0.1-1.5,0.2-2.3,0.2c-4,0-9.5-1.4-15.1-3.8c-2-0.8-7.8-3.4-10.4-6.5c-0.8-1.2-0.8-1.7-0.8-2.5
			l0-0.3c0-0.8,1.1-1.1,3.7-1.1c7.4,0,15.5,4.4,25,9.5C144.5,223.3,146.4,224.4,148.3,225.4z M142.7,227.8c-0.7,0.1-1.5,0.2-2.3,0.2
			C141.2,228,142,227.9,142.7,227.8z M139.8,228c-1,0-2.1-0.1-3.2-0.3C137.8,227.9,138.8,228,139.8,228z M136.6,227.7
			c-1.1-0.2-2.3-0.4-3.5-0.7C134.3,227.3,135.4,227.5,136.6,227.7z M132.4,226.8c-1.1-0.3-2.3-0.7-3.5-1.1
			C130.1,226.2,131.3,226.5,132.4,226.8z M128.3,225.5c-1.2-0.4-2.4-0.9-3.5-1.4C125.9,224.6,127.1,225.1,128.3,225.5z M114,217.3
			c-1.1-1.6-1-2.3-1-3.4c0-1.9,2.7-2,4.6-2c2.7,0,5.4,0.6,8.3,1.5c-2.9-0.9-5.6-1.5-8.3-1.5c-1.9,0-4.6,0.1-4.6,2
			C113,215,112.9,215.7,114,217.3c0.1,0.1,0.2,0.3,0.3,0.4C114.2,217.6,114.1,217.5,114,217.3z M139.4,228.6c0,0-0.1,0-0.1,0
			c-6.3,0-12.1-2.3-15.7-4c-2.7-1.3-6.7-3-9-5.2l0,0l0,0l0,0c2.3,2.2,6.3,3.9,9,5.2c3.6,1.7,9.4,3.9,15.7,4c0.4,0,1,0,1.5-0.1
			C140.3,228.5,139.8,228.6,139.4,228.6z M141.9,228.5c0.6-0.1,1.2-0.2,1.7-0.3C143,228.3,142.4,228.4,141.9,228.5z M183.2,235
			c-11.8,0-22.6-4.4-32.3-9.3c-1,0.6-2,1-3,1.4c1-0.4,2-0.8,3-1.4C160.6,230.6,171.3,235,183.2,235c11.2,0,20.7-5.5,26.8-14.2l0,0
			C203.8,229.5,194.4,235,183.2,235z M210.5,220.1c4.6-6.8,7.2-15.5,7.2-25c0-4.7-0.9-9.2-2.6-13.7c1.4-2.7,2.3-6,2.3-9.9
			c0-0.1,0-0.3,0-0.4c0,0.1,0,0.3,0,0.4c0,0,0,0,0,0c0,0,0,0,0,0c0,0,0,0,0-0.1c0.2-11.1-3.4-16.2-5.6-18.3
			c2.2,2.1,5.8,7.2,5.6,18.4c0,3.8-0.9,7.2-2.3,9.9c1.7,4.5,2.6,9,2.6,13.7C217.6,204.6,215,213.3,210.5,220.1
			c4,5.6,7.9,10.1,11.8,14C218.3,230.2,214.4,225.7,210.5,220.1z M217.1,168.6C217.1,168.6,217.1,168.6,217.1,168.6
			c0.1,0.9,0.3,1.7,0.3,2.3C217.3,170.3,217.2,169.5,217.1,168.6z"/>
		<path class="st3" d="M148.7,241.5c0,0.1-0.1,0.2-0.1,0.3c0,0.1-0.1,0.2-0.1,0.3c0,0.1-0.1,0.3-0.1,0.4c0,0.1,0,0.1,0,0.2l0.9,0.2
			c0,0,0.1-0.2,0.1-0.3c0,0,0.1-0.3,0.1-0.4c0,0,0-0.1,0-0.1c0,0,0-0.1,0-0.1L148.7,241.5z"/>
		<path class="st4" d="M288.2,229.8c0-0.5-0.4-0.9-0.9-0.9c0,0,0,0,0,0c-0.5,0-0.9,0.4-0.9,0.9c-0.1,2.5-0.6,4.6-1.2,7.2l-0.4,1.8
			c-0.2,0.6-0.7,2.5-0.8,2.8l-0.9,2c-0.1,0.1-0.3,0.4-0.4,0.8c-0.1,0.2-0.2,0.4-0.3,0.5c-2.5,4.8-7.4,6.3-12.7,7.6
			c-1.7,0.4-3.6,0.6-5.6,0.6c-1.1,0-2.3-0.1-3.5-0.2c-0.1,0-6.6-0.6-15.9-4.8l-0.3-0.2c-1.9-0.8-3.7-1.8-5.5-2.7v-126H97.8v139.4
			h141.1v-9.8c0,0,0,0,0,0c0,0,0,0,0,0l-0.4-0.2c-0.9-0.5-1.7-0.9-2.5-1.4c0,0,0,0,0,0c0,0,0,0,0,0c-0.2-0.1-0.4-0.2-0.6-0.4v8.3
			h-134V122.8h134v120.3c-0.2-0.1-0.4-0.2-0.6-0.3l0,0l-0.5-0.3c-0.3-0.2-0.6-0.3-0.9-0.6c-0.1-0.1-0.3-0.2-0.5-0.3
			c-0.1,0-0.1-0.1-0.1-0.1l-0.6-0.4l-0.8-0.6v0l0,1.1l0,0.6l0,0.6c0,0.1,0,0.1,0,0.2v0c0,0.2,0,0.5,0,0.7l0,0.4v0l0.4,0.3
			c0.4,0.3,0.8,0.6,1.1,0.8c0.7,0.5,1.3,0.8,2,1.2c0.2,0.1,0.3,0.2,0.5,0.3v-1v-1.6v-1c1.3,0.8,2.2,1.2,3.6,2.1c0,0.1,0,0.6,0,1
			c0,0.3,0,0.7,0,0.7c0,0.1,0,0.4,0,0.8c0,0.4,0,0.9,0,1c0,0,0,0,0,0.1c3.7,2,8.1,4,13.3,5.4c1.4,0.4,2.9,0.8,4.5,1.1
			c1.2,0.2,2.5,0.4,3.8,0.6c1.2,0.1,2.4,0.1,3.7,0.1c1.9,0,3.8-0.1,5.6-0.3c8.9-1,14.5-4.9,17-12.1l0,0c0-0.1,0.1-0.2,0.1-0.2
			c0,0,0,0,0-0.1c0-0.1,0-0.2,0.1-0.2c0.1-0.6,0.5-2.2,0.6-2.7C288.1,236.9,288.3,233.4,288.2,229.8z M264.1,255
			c-1.2,0-2.4,0-3.6-0.1c-6-0.7-11.3-2.3-16.2-4.5l0,0c4.9,2.1,10.2,3.8,16.2,4.5c1.3,0.1,2.7,0.1,4,0.1
			C264.4,255,264.3,255,264.1,255z M269.9,253.3c-0.9,0.2-1.8,0.4-2.7,0.5C268.1,253.7,269,253.6,269.9,253.3z M285.9,243.2
			c-2.6,7.2-8.1,10.7-16.3,11.5c0,0,0,0,0,0c0,0,0,0,0,0C277.8,253.9,283.4,250.4,285.9,243.2c0,0,0-0.1,0.1-0.2h0
			C286,243.1,285.9,243.2,285.9,243.2z M286.7,240.1c-0.1,0.5-0.2,0.9-0.3,1.4c0,0,0,0,0,0c0,0,0,0,0,0
			C286.5,241,286.5,240.6,286.7,240.1c0.5-3.2,0.8-6.7,0.7-10.2c0,0,0,0,0,0C287.4,233.4,287.2,236.9,286.7,240.1z"/>
		<path class="st3" d="M237.1,247.8l-1.8-1l0,0c-0.2-0.1-0.3-0.2-0.5-0.3c0.2,0.1,0.3,0.2,0.5,0.3c0.2,0.1,0.4,0.2,0.6,0.4
			c0,0,0,0,0,0c0.8,0.4,1.6,0.9,2.5,1.4L237.1,247.8z"/>
		<polygon class="st3" points="148.7,241.5 148.7,241.5 148.7,241.5 		"/>
		<path class="st5" d="M238.8,248.7c0-0.2,0-0.6,0-1c0-0.3,0-0.7,0-0.8c0,0,0-0.4,0-0.7c0-0.4,0-0.9,0-1c-1.3-0.8-2.3-1.3-3.6-2.1v1
			v1.6v1l0,0l1.8,1l1.3,0.7c-0.9-0.5-1.7-0.9-2.5-1.4c0,0,0,0,0,0c0.8,0.4,1.6,0.9,2.5,1.4L238.8,248.7
			C238.8,248.8,238.8,248.8,238.8,248.7C238.8,248.8,238.8,248.8,238.8,248.7c3.7,2,8.2,4,13.3,5.4
			C247,252.7,242.6,250.7,238.8,248.7C238.8,248.8,238.8,248.7,238.8,248.7z"/>
	</g>
</g>
<g id="Layer_3">
	<rect class="st6" width="69.1" height="67.7"/>
</g>
</svg>
