<?xml version="1.0" encoding="UTF-8"?>
<svg id="Layer_2" data-name="Layer 2" xmlns="http://www.w3.org/2000/svg" viewBox="0 0 190.48 139.36">
  <defs>
    <style>
      .cls-1 {
        fill: none;
      }

      .cls-1, .cls-2, .cls-3, .cls-4 {
        stroke-width: 0px;
      }

      .cls-2 {
        fill: #61bbc9;
      }

      .cls-3 {
        fill: #231f20;
      }

      .cls-4 {
        fill: #fff;
      }
    </style>
  </defs>
  <path class="cls-1" d="M135.05,126.02c-.34-.23-.7-.49-1.12-.8l-.35-.26h0s0,0,0,0v6.97H7.51V7.44h126.07v113.83s0,0,0,0h0s.81.56.81.56c.85.59,1.7,1.17,2.58,1.72h0c.18.12.38.22.56.33V3.56H3.56v132.25h133.97v-8.25c-.18-.1-.34-.2-.51-.29-.7-.41-1.3-.77-1.97-1.24Z"/>
  <path class="cls-1" d="M146.58,131.19h0c4.88,2.13,10.18,3.77,16.19,4.46,1.17.09,2.37.13,3.59.13.14,0,.29-.02.43-.02-1.36.01-2.71-.01-4.02-.11-6.01-.69-11.31-2.33-16.19-4.46Z"/>
  <path class="cls-1" d="M169.43,134.55c.9-.1,1.8-.25,2.7-.46-.9.22-1.81.36-2.7.46Z"/>
  <path class="cls-1" d="M189.56,110.59c.13,3.57-.1,7-.65,10.24-.14.51-.21.87-.3,1.4,0,0,0,0,0,0,0,0,0,0,0,0,.09-.53.16-.89.3-1.4.55-3.24.78-6.67.65-10.24,0,0,0,0,0,0Z"/>
  <path class="cls-1" d="M188.18,123.94c-2.56,7.17-8.13,10.66-16.28,11.55,0,0-.02,0-.02,0,0,0,.02,0,.02,0,8.15-.89,13.72-4.37,16.28-11.55,0,0,.03-.1.06-.19h0c-.03.09-.06.19-.06.19Z"/>
  <path class="cls-2" d="M38.91,108.46c1.1.16,2.14.24,3.15.26-1.01-.02-2.05-.09-3.15-.26Z"/>
  <path class="cls-2" d="M44.92,108.55c-.7.12-1.47.16-2.25.17.79-.01,1.55-.06,2.25-.17Z"/>
  <path class="cls-2" d="M35.31,107.72c1.19.3,2.36.56,3.49.73-1.13-.17-2.31-.43-3.49-.73Z"/>
  <path class="cls-2" d="M25.77,105.36c-2.7-1.29-6.69-3.03-9.04-5.18v.03s0,0,0,0v-.03c2.34,2.15,6.33,3.89,9.03,5.18,3.6,1.71,9.42,3.93,15.72,3.97.05,0,.1,0,.15,0,.41,0,.9-.05,1.36-.08-.51.03-1.06.08-1.51.08-6.3-.05-12.12-2.26-15.72-3.97Z"/>
  <path class="cls-2" d="M85.42,115.76c-11.84,0-22.56-4.38-32.31-9.33-.96.55-1.97,1.01-3,1.38,1.03-.38,2.04-.83,3-1.38,9.75,4.94,20.47,9.33,32.31,9.33,11.23,0,20.66-5.48,26.8-14.22h0c-6.14,8.74-15.57,14.22-26.8,14.22Z"/>
  <path class="cls-2" d="M30.53,106.26c-1.19-.43-2.38-.88-3.53-1.38,1.15.5,2.34.95,3.53,1.38Z"/>
  <path class="cls-2" d="M55.59,82.26c.59.52,1.11,1.04,1.57,1.55-.45-.52-.97-1.03-1.57-1.55Z"/>
  <path class="cls-2" d="M31.19,106.5c1.16.4,2.31.75,3.46,1.06-1.15-.31-2.3-.66-3.46-1.06Z"/>
  <path class="cls-3" d="M16.15,94.73v.27c0,.84-.01,1.35.79,2.53,2.59,3.18,8.42,5.69,10.4,6.54,5.62,2.41,11.12,3.8,15.1,3.8.85,0,1.64-.06,2.35-.18,2.18-.37,4.05-.79,5.79-1.55-1.96-1.02-3.89-2.06-5.77-3.07-9.44-5.08-17.59-9.46-24.98-9.46-2.58,0-3.68.34-3.68,1.14Z"/>
  <path class="cls-2" d="M15.26,94.73c0-1.92,2.65-2.03,4.57-2.03,2.66,0,5.43.57,8.3,1.51-2.87-.94-5.63-1.51-8.3-1.51-1.92,0-4.57.1-4.57,2.03,0,1.03-.11,1.75.99,3.35.1.13.22.25.33.38-.11-.13-.23-.25-.33-.38-1.1-1.61-.99-2.33-.99-3.35Z"/>
  <path class="cls-2" d="M119.3,49.35c.15.89.26,1.69.3,2.31-.04-.62-.15-1.42-.3-2.31,0,0,0,0,0,0Z"/>
  <path class="cls-2" d="M45.85,108.91c-.59.1-1.19.22-1.74.28.55-.06,1.15-.18,1.74-.28Z"/>
  <path class="cls-2" d="M104.71,29.81c-.08,0-.17.02-.25.02.9-.02,1.77.07,2.63.25-.78-.16-1.57-.27-2.38-.27Z"/>
  <path class="cls-2" d="M101.23,30.3c.99-.27,1.94-.4,2.87-.45-.93.05-1.88.18-2.87.45Z"/>
  <path class="cls-3" d="M113.24,104.47c-.35-.47-.69-.94-1.03-1.41-6.59,8.77-16.06,13.59-26.79,13.59-12.26,0-23.18-4.62-32.29-9.21-3.8,2.05-8.39,2.79-11.64,2.79h0c-6.37-.05-12.27-2.24-16.09-4.06l-.95-.45c-2.66-1.25-5.95-2.8-8.14-4.73-.09-.05-.17-.12-.24-.2-.09-.1-.23-.24-.42-.42-1.12-1.09-3.76-3.64-4.38-8.05-.34-2.42.37-4.73,2.07-6.68,2.32-2.67,6.18-4.33,10.09-4.33,7.88,0,16.69,5.31,26.88,11.45,2.59,1.56,5.27,3.17,8,4.73.65-2.03.95-3.98,1.03-4.91.32-3.62-1.14-6.87-4.33-9.65-.36-.32-.41-.86-.1-1.23.18-.21.43-.33.69-.33.19,0,.38.06.54.18,2.95,2.25,4.5,4.02,5.3,7.97.42,2.09-.07,5.8-1.17,9.07,8.88,4.94,19.43,9.87,30.79,9.87,7.32,0,13.92-3.14,18.66-8.87-6.55-9.27-11.32-17.74-14.58-25.87-.08,0-.16,0-.23,0-27.74,0-60.58-23.05-60.58-42.52,0-10.98,11.26-17.54,22.15-17.54,9.65,0,26.06,7.89,39.28,18.83,1.42-1.52,3.06-2.48,5.24-3.07,1.27-.35,2.52-.52,3.73-.52,2.95,0,5.77,1.03,8.61,3.16,4.81,3.6,7.37,10.76,7.19,20.15,0,3.57-.77,6.99-2.23,9.91,1.67,4.61,2.48,9.08,2.48,13.65,0,9.3-2.42,17.93-6.99,25,6.42,8.92,12.67,15.38,19.8,20.47V7.44H7.51v124.49h126.07v-6.97c-9.92-7.09-17.89-17.21-20.34-20.48ZM51.4,123.96c.02-.07.05-.17.05-.2,0,.03-.03.13-.05.2ZM51.66,122.86s-.02.1-.02.11c0,.02-.07.34-.07.36,0,.03-.05.22-.06.25l-.86-.21q.02-.08.04-.15c.02-.13.06-.26.08-.39.02-.11.03-.21.07-.31.01-.04.05-.21.07-.26h0s0,0,0,0c0,0,0,0,0,0l.79.5s-.01.06-.02.11Z"/>
  <path class="cls-2" d="M133.58,123.82h0c-3.61-2.64-7.01-5.68-9.96-8.67,2.95,3,6.35,6.03,9.96,8.67Z"/>
  <path class="cls-2" d="M68.74,67.03c8.32,3.6,17.38,5.82,26.16,5.82.27,0,.55-.03.83-.03h0c-.27,0-.56.03-.83.03-8.79,0-17.84-2.21-26.16-5.82Z"/>
  <path class="cls-2" d="M60.56,89.7c-.57-2.81-1.5-4.39-3.11-5.9,1.61,1.51,2.55,3.09,3.11,5.9.39,1.93-.09,5.82-1.38,9.31h0c1.29-3.49,1.77-7.38,1.38-9.31Z"/>
  <path class="cls-2" d="M119.62,52.17s0,.03,0,.05c.21-11.19-3.44-16.28-5.62-18.4,2.18,2.12,5.82,7.2,5.62,18.34Z"/>
  <path class="cls-2" d="M119.88,75.79c0-4.74-.9-9.22-2.56-13.71,1.41-2.69,2.31-6.02,2.31-9.86,0,0,0,0,0,0h0c0-.12,0-.26-.02-.4,0,.14.02.29.02.41,0,3.84-.9,7.17-2.31,9.86,1.67,4.48,2.56,8.97,2.56,13.71,0,9.56-2.63,18.22-7.18,25.02,3.99,5.58,7.85,10.14,11.77,13.96-3.91-3.82-7.78-8.38-11.77-13.96,4.55-6.81,7.18-15.46,7.18-25.02Z"/>
  <path class="cls-3" d="M91.21,61.26c-1.6-7.19-1.47-18,1.86-24.74.12-.24.24-.48.36-.7-11.97-9.87-25.46-15.75-36.2-15.75-7.21,0-14.99,4.95-14.99,12.94,0,17.3,26.72,36.27,51.42,36.76-1.05-3.02-1.86-5.82-2.46-8.52Z"/>
  <path class="cls-2" d="M94.26,40.62c.46-1.24.91-2.59,1.63-3.91,1.65,1.44,3.25,2.94,4.77,4.5h0c-1.53-1.56-3.12-3.06-4.77-4.5-.72,1.32-1.18,2.68-1.63,3.91-1.68,4.56-2.43,10.44-1.86,16.09.4,3.98,1.61,8.66,3.59,13.91h0c-1.98-5.24-3.18-9.93-3.59-13.91-.57-5.65.18-11.53,1.86-16.09Z"/>
  <path class="cls-2" d="M108.35,94.43c-5.13-7.98-8.92-15.23-11.55-21.66,6.9-.37,14.77-2.79,19.23-8.76h0c-4.45,5.98-12.33,8.39-19.23,8.76,2.62,6.43,6.42,13.68,11.55,21.66,1.01,1.57,2.01,3.04,3,4.48-.99-1.44-1.99-2.91-3-4.48Z"/>
  <path class="cls-3" d="M114.52,62.57c-2.59-6.97-6.95-13.2-14.49-20.74-1.22-1.24-2.51-2.48-3.86-3.69-.34.75-.61,1.51-.88,2.25l-.19.53c-1.69,4.6-2.35,10.31-1.8,15.69.38,3.77,1.5,8.17,3.31,13.08,7.98-.39,14.61-3.03,17.92-7.13Z"/>
  <path class="cls-3" d="M98.1,73.57c2.69,6.36,6.39,13.21,11,20.38.76,1.19,1.52,2.31,2.26,3.41,3.68-5.47,5.7-12.49,5.7-19.9,0-4.22-.47-8.11-1.41-11.59-5.22,5.78-13.22,7.31-17.55,7.7Z"/>
  <path class="cls-2" d="M57.24,19.18c4.94,0,10.37,1.23,15.88,3.4-5.51-2.17-10.94-3.4-15.88-3.4-8.2,0-15.88,5.64-15.88,13.83,0,4.54,1.75,9.17,4.79,13.57-3.03-4.4-4.79-9.03-4.79-13.57,0-8.2,7.69-13.83,15.88-13.83Z"/>
  <path class="cls-2" d="M105.67,31.39s0,0,.01,0c2.58.18,4.88,1.65,6.78,3.57-1.9-1.92-4.2-3.4-6.78-3.57,0,0,0,0-.01,0Z"/>
  <path class="cls-2" d="M98.95,33.19s.01,0,.02-.01c0,0-.01,0-.02.01-.71.52-1.29,1.08-1.79,1.66h0c.5-.58,1.07-1.14,1.79-1.66Z"/>
  <path class="cls-3" d="M116.65,58.12c.08-.44.14-.9.2-1.36.07-.49.13-.98.22-1.48.31-1.82.37-4.14.17-6.83l-.04-.28c-.28-2.25-.49-3.66-.65-4.21-1.01-4.08-3-6.33-3.06-6.41-1.72-2.27-4.49-5.03-7.87-5.26-.37-.02-.73-.03-1.07-.03-1.77,0-3.18.27-5.1,1.66-.37.26-.71.55-1.04.87,8.23,7.31,14.47,15.32,18.22,23.33Z"/>
  <path class="cls-2" d="M116.8,60.68h0c-.47-1.15-1-2.28-1.56-3.41.56,1.13,1.09,2.26,1.56,3.41Z"/>
  <path class="cls-4" d="M51.69,122.75s-.01.06-.02.11c.01-.05.02-.1.02-.11l-.79-.5.79.5Z"/>
  <path class="cls-4" d="M134.99,122.25c.06.04.09.06.14.1.19.13.34.24.47.33.3.21.51.34.85.55l.51.32c-.88-.55-1.73-1.13-2.58-1.72l.6.42Z"/>
  <path class="cls-4" d="M51.46,123.76s-.03.13-.05.2c.02-.07.05-.17.05-.2Z"/>
  <path class="cls-4" d="M113.78,100.8c4.58-7.07,6.99-15.7,6.99-25,0-4.57-.81-9.04-2.48-13.65,1.46-2.93,2.23-6.34,2.23-9.91.17-9.39-2.38-16.55-7.19-20.15-2.84-2.13-5.65-3.16-8.61-3.16-1.2,0-2.46.18-3.73.52-2.17.59-3.82,1.55-5.24,3.07-13.23-10.95-29.63-18.83-39.28-18.83-10.89,0-22.15,6.56-22.15,17.54,0,19.47,32.84,42.52,60.58,42.52.08,0,.16,0,.23,0,3.26,8.12,8.04,16.6,14.58,25.87-4.74,5.72-11.34,8.87-18.66,8.87-11.36,0-21.91-4.93-30.79-9.87,1.1-3.27,1.59-6.99,1.17-9.07-.8-3.95-2.34-5.71-5.3-7.97-.16-.12-.35-.18-.54-.18-.26,0-.51.11-.69.33-.3.37-.26.92.1,1.23,3.19,2.79,4.65,6.04,4.33,9.65-.08.93-.39,2.88-1.03,4.91-2.73-1.56-5.4-3.17-8-4.73-10.2-6.14-19.01-11.45-26.88-11.45-3.91,0-7.77,1.66-10.09,4.33-1.69,1.95-2.41,4.26-2.07,6.68.62,4.4,3.26,6.96,4.38,8.05.18.18.33.31.42.42.07.08.15.15.24.2,2.19,1.93,5.48,3.48,8.14,4.73l.95.45c3.83,1.83,9.73,4.01,16.09,4.06h0c3.25,0,7.84-.74,11.64-2.79,9.11,4.59,20.03,9.21,32.29,9.21,10.73,0,20.2-4.81,26.79-13.59.34.47.68.94,1.03,1.41,2.45,3.27,10.42,13.38,20.34,20.48,0,0,0,0,0,0v-.44c-.01-.25,0-.47,0-.7-3.61-2.64-7.01-5.68-9.96-8.67,2.95,3,6.35,6.03,9.96,8.67,0-.07,0-.13,0-.2v-.64s0-.61,0-.61v-1.09s0,0,0,0c-7.14-5.09-13.38-11.56-19.8-20.47ZM104.71,29.81c.81,0,1.6.11,2.38.27-.85-.18-1.73-.27-2.63-.25.08,0,.17-.02.25-.02ZM112.46,34.96c-1.9-1.92-4.2-3.4-6.78-3.57,0,0,0,0-.01,0,0,0,0,0,.01,0,2.58.18,4.88,1.65,6.78,3.57ZM104.1,29.85c-.93.05-1.88.18-2.87.45.99-.27,1.94-.4,2.87-.45ZM104.57,32.25c.34,0,.69.01,1.07.03,3.38.23,6.15,2.99,7.87,5.26.07.08,2.05,2.34,3.06,6.41.15.55.37,1.96.65,4.21l.04.28c.2,2.7.15,5.01-.17,6.83-.09.5-.15.99-.22,1.48-.06.47-.13.92-.2,1.36-3.74-8.01-9.99-16.02-18.22-23.33.33-.32.67-.61,1.04-.87,1.92-1.39,3.32-1.66,5.1-1.66ZM117.07,77.46c0,7.41-2.02,14.42-5.7,19.9-.75-1.1-1.5-2.22-2.26-3.41-4.61-7.17-8.31-14.02-11-20.38,4.33-.39,12.33-1.92,17.55-7.7.94,3.48,1.41,7.37,1.41,11.59ZM116.8,60.68c-.47-1.15-1-2.28-1.56-3.41.56,1.13,1.09,2.26,1.56,3.41h0ZM98.95,33.19s.01,0,.02-.01c0,0-.01,0-.02.01-.71.52-1.29,1.08-1.79,1.66h0c.5-.58,1.07-1.14,1.79-1.66ZM41.35,33.01c0-8.2,7.69-13.83,15.88-13.83,4.94,0,10.37,1.23,15.88,3.4-5.51-2.17-10.94-3.4-15.88-3.4-8.2,0-15.88,5.64-15.88,13.83,0,4.54,1.75,9.17,4.79,13.57-3.03-4.4-4.79-9.03-4.79-13.57ZM42.24,33.01c0-7.99,7.78-12.94,14.99-12.94,10.74,0,24.23,5.88,36.2,15.75-.12.22-.24.46-.36.7-3.33,6.75-3.46,17.55-1.86,24.74.6,2.7,1.41,5.5,2.46,8.52-24.71-.49-51.42-19.46-51.42-36.76ZM95.73,72.82c-.27,0-.56.03-.83.03-8.79,0-17.84-2.21-26.16-5.82,8.32,3.6,17.38,5.82,26.16,5.82.27,0,.55-.03.83-.03h0ZM95.99,70.62c-1.98-5.24-3.18-9.93-3.59-13.91-.57-5.65.18-11.53,1.86-16.09.46-1.24.91-2.59,1.63-3.91,1.65,1.44,3.25,2.94,4.77,4.5h0c-1.53-1.56-3.12-3.06-4.77-4.5-.72,1.32-1.18,2.68-1.63,3.91-1.68,4.56-2.43,10.44-1.86,16.09.4,3.98,1.61,8.66,3.59,13.91h0ZM93.29,56.62c-.55-5.38.11-11.1,1.8-15.69l.19-.53c.27-.74.55-1.5.88-2.25,1.35,1.21,2.64,2.44,3.86,3.69,7.54,7.54,11.9,13.77,14.49,20.74-3.32,4.1-9.94,6.74-17.92,7.13-1.81-4.91-2.93-9.31-3.31-13.08ZM108.35,94.43c-5.13-7.98-8.92-15.23-11.55-21.66,6.9-.37,14.77-2.79,19.23-8.76h0c-4.45,5.98-12.33,8.39-19.23,8.76,2.62,6.43,6.42,13.68,11.55,21.66,1.01,1.57,2.01,3.04,3,4.48-.99-1.44-1.99-2.91-3-4.48ZM55.59,82.26c.59.52,1.11,1.04,1.57,1.55-.45-.52-.97-1.03-1.57-1.55ZM60.56,89.7c-.57-2.81-1.5-4.39-3.11-5.9,1.61,1.51,2.55,3.09,3.11,5.9.39,1.93-.09,5.82-1.38,9.31h0c1.29-3.49,1.77-7.38,1.38-9.31ZM50.58,106.13c-1.74.76-3.62,1.18-5.79,1.55-.71.12-1.5.18-2.35.18-3.98,0-9.49-1.38-15.1-3.8-1.98-.85-7.81-3.36-10.4-6.54-.8-1.18-.8-1.69-.79-2.53v-.27c0-.8,1.1-1.14,3.69-1.14,7.38,0,15.54,4.39,24.98,9.46,1.88,1.01,3.81,2.05,5.77,3.07ZM44.92,108.55c-.7.12-1.47.16-2.25.17.79-.01,1.55-.06,2.25-.17ZM42.06,108.72c-1.01-.02-2.05-.09-3.15-.26,1.1.16,2.15.24,3.15.26ZM38.8,108.45c-1.13-.17-2.31-.43-3.49-.73,1.19.3,2.36.56,3.49.73ZM34.65,107.55c-1.15-.31-2.3-.66-3.46-1.06,1.15.4,2.31.75,3.46,1.06ZM30.53,106.26c-1.19-.43-2.38-.88-3.53-1.38,1.15.5,2.34.95,3.53,1.38ZM16.25,98.08c-1.1-1.61-.99-2.33-.99-3.35,0-1.92,2.65-2.03,4.57-2.03,2.66,0,5.43.57,8.3,1.51-2.87-.94-5.63-1.51-8.3-1.51-1.92,0-4.57.1-4.57,2.03,0,1.03-.11,1.75.99,3.35.1.13.22.25.33.38-.11-.13-.23-.25-.33-.38ZM41.64,109.34s-.1,0-.15,0c-6.3-.05-12.12-2.26-15.72-3.97-2.7-1.29-6.69-3.03-9.04-5.18v.03s0,0,0,0v-.03c2.34,2.15,6.33,3.89,9.03,5.18,3.6,1.71,9.42,3.93,15.72,3.97.45,0,1-.05,1.51-.08-.46.03-.96.08-1.36.08ZM44.1,109.19c.55-.06,1.15-.18,1.74-.28-.59.1-1.19.22-1.74.28ZM85.42,115.76c-11.84,0-22.56-4.38-32.31-9.33-.96.55-1.97,1.01-3,1.38,1.03-.38,2.04-.83,3-1.38,9.75,4.94,20.47,9.33,32.31,9.33,11.23,0,20.66-5.48,26.8-14.22h0c-6.14,8.74-15.57,14.22-26.8,14.22ZM112.7,100.82c4.55-6.81,7.18-15.46,7.18-25.02,0-4.74-.9-9.22-2.56-13.71,1.41-2.69,2.31-6.02,2.31-9.86,0-.12,0-.26-.02-.41,0,.14.02.28.02.4h0s0,0,0,0c0-.02,0-.03,0-.05.2-11.15-3.44-16.23-5.62-18.34,2.18,2.12,5.83,7.21,5.62,18.4,0,3.84-.9,7.17-2.31,9.86,1.67,4.48,2.56,8.97,2.56,13.71,0,9.56-2.63,18.22-7.18,25.02,3.99,5.58,7.85,10.14,11.77,13.96-3.91-3.82-7.78-8.38-11.77-13.96ZM119.3,49.35s0,0,0,0c.15.89.26,1.69.3,2.31-.05-.62-.15-1.42-.3-2.31Z"/>
  <path class="cls-2" d="M50.9,122.25c-.02.05-.06.23-.07.26-.04.1-.05.21-.07.31-.02.13-.06.26-.08.39q-.02.07-.04.15l.86.21s.05-.22.06-.25c0-.02.07-.34.07-.36,0-.01.01-.06.02-.11.01-.05.02-.1.02-.11l-.79-.5Z"/>
  <path class="cls-3" d="M190.45,110.56c-.02-.48-.41-.86-.89-.86h0c-.48,0-.87.38-.89.85-.1,2.5-.59,4.57-1.21,7.18l-.42,1.79c-.16.63-.69,2.48-.85,2.83l-.91,1.98c-.08.09-.26.45-.42.79-.1.2-.19.4-.27.52-2.47,4.77-7.39,6.3-12.66,7.57-1.71.41-3.58.62-5.57.62-1.13,0-2.29-.06-3.54-.2-.1,0-6.6-.6-15.95-4.77l-.33-.18c-1.89-.85-3.69-1.76-5.47-2.74V0H0v139.36h141.09v-9.84s0,0-.01,0c0,0,0,.01,0,.02l-.42-.23c-.86-.46-1.69-.92-2.48-1.37,0,0,0,0,0,0,0,0,0,0-.01,0-.24-.14-.42-.24-.63-.36v8.25H3.56V3.56h133.97v120.32c-.18-.11-.38-.21-.56-.33h0s-.51-.32-.51-.32c-.35-.22-.55-.35-.85-.55-.13-.09-.28-.2-.47-.33-.05-.04-.09-.06-.14-.1l-.6-.42-.81-.57h0s0,1.1,0,1.1v.61s0,.64,0,.64c0,.07,0,.13,0,.2h0c0,.23,0,.46,0,.7v.44s0,0,0,0l.35.26c.42.31.78.57,1.12.8.67.46,1.27.83,1.97,1.24.16.1.33.19.5.29v-3.66c1.3.82,2.24,1.23,3.56,2.07,0,.11,0,.58.01,1.01,0,.35,0,.67,0,.72,0,.08,0,.41-.01.76,0,.43-.02.86-.02,1.01,0,.01,0,.04,0,.05,3.72,1.97,8.15,3.97,13.31,5.39,1.44.4,2.92.77,4.47,1.06,1.23.23,2.51.43,3.81.58,1.22.09,2.45.14,3.69.14,1.87,0,3.77-.1,5.64-.31,8.89-.97,14.46-4.94,17.03-12.13h0c.03-.08.05-.16.07-.22,0,0,.01-.04.02-.06.02-.07.05-.17.05-.2.11-.61.47-2.22.61-2.69.59-3.44.81-6.95.68-10.51ZM166.36,135.79c-1.21,0-2.41-.04-3.59-.13-6.01-.69-11.31-2.33-16.19-4.46h0c4.88,2.13,10.18,3.77,16.19,4.46,1.31.1,2.66.12,4.02.11-.14,0-.29.02-.43.02ZM172.13,134.08c-.9.22-1.8.36-2.7.46.89-.1,1.8-.25,2.7-.46ZM188.18,123.94c-2.56,7.17-8.13,10.66-16.28,11.55,0,0-.02,0-.02,0,0,0,.02,0,.02,0,8.15-.89,13.72-4.37,16.28-11.55,0,0,.03-.1.06-.19h0c-.03.09-.06.19-.06.19ZM188.91,120.83c-.14.51-.21.87-.3,1.4,0,0,0,0,0,0,0,0,0,0,0,0,.09-.53.16-.89.3-1.4.55-3.24.78-6.67.65-10.24,0,0,0,0,0,0,.13,3.57-.1,7.01-.65,10.24Z"/>
  <path class="cls-2" d="M139.33,128.56l-1.8-1h0c-.18-.11-.34-.2-.5-.3.16.1.33.19.51.29.21.12.39.23.63.36,0,0,0,0,.01,0,.78.45,1.61.91,2.47,1.37l-1.31-.73Z"/>
  <polygon class="cls-2" points="50.9 122.25 50.9 122.25 50.9 122.25 50.9 122.25"/>
  <path class="cls-4" d="M141.08,129.46c0-.15,0-.58.02-1.01,0-.35.01-.67.01-.76,0-.04,0-.37,0-.72,0-.43-.01-.91-.01-1.01-1.31-.84-2.26-1.25-3.56-2.07v3.66h0s1.8,1.01,1.8,1.01l1.31.73c-.86-.46-1.69-.92-2.47-1.37,0,0,0,0,0,0,.79.45,1.62.91,2.48,1.37l.42.23s0-.01,0-.02c0,0,0,0,.01,0,3.71,1.97,8.14,3.96,13.29,5.38-5.16-1.42-9.58-3.42-13.31-5.39,0,0,0-.04,0-.05Z"/>
</svg>